<svg viewBox="0 0 558 558" version="1.1" xmlns="http://www.w3.org/2000/svg" xmlns:xlink="http://www.w3.org/1999/xlink" class="">
    <title>Group</title>
    <g id="Logo" stroke="none" stroke-width="1" fill="none" fill-rule="evenodd">
        <g id="Group" fill="#000000" fill-rule="nonzero">
            <path d="M468.350146,275.876108 L368.299069,181.483459 C366.727586,180.016216 363.58462,180.016216 362.013137,181.483459 C360.441654,182.950703 360.441654,185.885189 362.013137,187.352432 L459.445077,278.810595 L361.489309,370.757838 C359.917827,372.225081 359.917827,375.159568 361.489309,376.626811 C362.536965,377.604973 363.58462,378.094054 364.632275,378.094054 C365.679931,378.094054 367.251413,377.604973 367.775241,376.626811 L468.350146,282.234162 C470.445457,280.277838 470.445457,277.832432 468.350146,275.876108 Z" id="Path"></path>
            <path d="M158.039449,181.100432 C156.467966,179.633189 153.325,179.633189 151.753518,181.100432 L51.1786122,275.493081 C49.6071293,276.960324 49.6071293,279.894811 51.1786122,281.362054 L151.753518,375.754703 C152.801173,376.732865 153.848828,377.221946 154.896483,377.221946 C155.944139,377.221946 156.991794,376.732865 158.039449,375.754703 C159.610932,374.287459 159.610932,371.352973 158.039449,369.88573 L61.1313372,278.427568 L158.563277,186.969405 C160.13476,185.502162 160.13476,182.567676 158.039449,181.100432 Z" id="Path"></path>
            <path d="M353.638677,0.237547893 C348.549618,-0.712643678 343.46056,1.18773946 342.442748,5.93869732 L160.254453,547.547893 C159.236641,552.298851 161.272265,557.049808 166.361323,558 C167.379135,558 168.396947,558 169.414758,558 C173.486005,558 176.53944,556.099617 177.557252,552.298851 L359.745547,10.6896552 C360.763359,5.93869732 358.727735,1.18773946 353.638677,0.237547893 Z" id="Path"></path>
        </g>
    </g>
</svg>