<?xml version="1.0" encoding="UTF-8"?>
<svg width="852px" height="851px" viewBox="0 0 852 851" version="1.1" xmlns="http://www.w3.org/2000/svg" xmlns:xlink="http://www.w3.org/1999/xlink">
    <title>logo-full</title>
    <g id="Logo" stroke="none" stroke-width="1" fill="none" fill-rule="evenodd">
        <g id="logo-full" transform="translate(0.500000, 0.000000)" fill="#EC4899" fill-rule="nonzero" stroke="#EC4899">
            <g id="logo">
                <path d="M368.774797,176.292683 C389.249594,182.471544 410.044309,186.699187 431.158943,189.626016 C436.597561,190.276423 442.036179,190.926829 447.154878,191.577236 C447.474797,189.626016 447.794716,187.349593 448.114634,185.398374 C450.354065,171.414634 452.913415,157.105691 455.152846,143.121951 C460.271545,111.577236 465.710163,79.707317 475.627642,49.4634146 C477.547155,43.9349593 479.466667,38.406504 481.386179,32.8780488 C468.589431,30.9268293 455.472764,29.6260163 442.676016,28.9756098 C439.476829,28.6504065 436.277642,28.6504065 433.398374,28.6504065 C431.158943,46.8617886 426.680081,64.7479674 420.281708,81.6585365 C411.323984,106.048781 399.806911,129.463414 385.730488,151.577236 C380.611789,159.707317 374.853252,167.837398 368.774797,176.292683 Z" id="Path"></path>
                <path d="M440.756504,250.764227 C441.396342,240.682927 442.036179,230.601626 443.315854,220.520325 C429.239431,219.219512 415.482927,216.943089 401.726423,214.341463 C384.130895,211.089431 366.535366,206.536585 349.579675,201.00813 C346.380488,204.910569 342.861382,208.813008 339.342277,212.715447 C316.628049,238.081301 291.034553,260.520325 262.881708,279.382114 C254.88374,284.910569 246.565854,290.113821 237.928049,294.99187 C243.046748,318.406504 244.96626,343.121951 243.046748,366.861788 C242.406911,376.617886 241.127236,386.699187 239.207724,396.455284 C244.006504,395.804878 248.485366,395.154471 253.284147,394.504065 C318.227642,385.398374 382.531301,372.715447 445.875203,355.804878 C440.756504,321.00813 438.836992,285.886179 440.756504,250.764227 Z" id="Path"></path>
                <path d="M211.054878,482.308943 C209.135366,486.861788 206.895935,491.089431 204.976423,495.317073 C213.934147,498.569105 222.89187,502.146341 231.529675,506.373984 C260.962195,520.357723 288.475203,538.894309 312.149187,561.333333 C312.789025,561.98374 313.748781,562.634146 314.388618,563.284553 C356.297968,507.02439 396.607724,449.138211 433.078455,389.300813 C366.855285,405.886179 299.992277,418.243902 232.169512,426.373984 C226.410976,445.560975 219.372764,464.097561 211.054878,482.308943 Z" id="Path"></path>
                <path d="M475.947561,193.528455 C495.142683,194.178862 514.657724,193.853658 533.852846,192.227642 C542.170732,171.739837 549.848781,151.252032 557.206911,130.113821 C564.88496,107.02439 572.24309,83.6097561 577.04187,59.5447154 C574.162602,58.2439024 570.963415,56.9430894 568.084147,55.6422764 C549.528862,48.1626016 530.33374,41.9837398 510.498781,37.4308943 C499.621545,64.7479674 493.223171,94.0162601 487.784553,122.95935 C485.225203,136.943089 482.985773,151.252032 480.746342,165.235772 C479.146748,174.99187 477.547155,184.097561 475.947561,193.528455 Z" id="Path"></path>
                <path d="M490.98374,223.121951 C484.585366,223.121951 478.506911,222.796748 472.108537,222.471544 C468.589431,256.292683 467.949594,290.113821 471.148781,323.609756 C489.384147,290.439024 506.019919,256.617886 521.376016,222.146341 C511.138618,222.796748 500.90122,223.121951 490.98374,223.121951 Z" id="Path"></path>
                <path d="M566.484553,188 C597.196748,182.471544 627.269106,173.691057 656.381708,161.333333 C670.45813,155.154471 684.214634,148.325203 697.331301,140.845528 C680.695529,124.260163 662.460163,108.97561 642.625203,95.6422764 C630.468293,87.1869918 617.671545,79.707317 603.915041,72.5528455 C595.597155,110.276423 582.800407,147.02439 568.723984,183.121951 C567.764228,184.422764 567.12439,186.373984 566.484553,188 Z" id="Path"></path>
                <path d="M574.802439,215.967479 C567.764228,217.268292 560.726016,218.243902 553.687805,219.219512 C544.090244,242.308943 533.532927,265.07317 522.655691,287.512195 C513.378049,306.04878 503.780488,324.260162 493.863008,342.146341 C546.969512,326.211382 599.11626,307.674797 650.303252,285.886179 C689.333334,268.97561 727.403659,250.439024 764.834147,229.951219 C762.594716,226.04878 760.355285,222.146341 758.115854,218.569105 C746.598781,199.382114 733.162195,180.520325 717.486179,162.634146 C703.729675,170.764227 689.333334,178.243902 674.617073,184.747967 C642.625203,199.05691 609.353659,210.113821 574.802439,215.967479 Z" id="Path"></path>
                <path d="M479.146748,376.943089 C484.905285,402.634146 492.583334,427.674797 502.500813,452.06504 C516.257317,484.910569 533.852846,515.804878 554.96748,544.422764 C555.927236,545.723577 557.206911,547.349593 558.166667,548.650406 C574.802439,521.333333 594.31748,495.642276 615.752033,471.902439 C642.625203,442.308943 672.697561,415.642276 705.649187,393.528455 C737.321138,372.390244 771.232521,354.829268 806.743496,341.170731 C803.864228,328.487805 800.665041,315.804878 796.506098,303.447154 C791.387399,287.512195 784.989025,271.577236 777.950813,256.292683 C754.916667,268.97561 731.882521,280.682927 708.208537,291.739837 C634.307317,326.536585 557.526829,354.829268 479.146748,376.943089 Z" id="Path"></path>
                <path d="M812.182114,370.113821 C807.703252,371.739837 802.904472,373.691057 798.42561,375.642276 C761.63496,391.577236 727.08374,412.06504 695.411789,436.455284 C663.419919,461.821138 634.947155,491.089431 609.993496,523.609756 C598.476423,538.894309 587.919106,554.829268 578.001626,571.414634 C599.11626,594.504065 622.470325,615.642276 647.104065,635.154471 C670.45813,653.365853 694.771951,670.276423 719.085773,686.861788 C734.121951,669.626016 747.558537,651.089431 759.395529,631.577236 C773.79187,607.837398 785.948781,581.495935 795.546342,553.203252 C804.184147,527.186992 810.582521,498.894309 813.781708,468.97561 C817.300813,436.780488 816.660976,403.284553 812.182114,370.113821 Z" id="Path"></path>
                <path d="M492.263415,497.918699 C477.547155,468.650406 465.390244,437.756097 456.752439,405.886179 C419.002033,467.349593 377.412602,526.536585 334.543496,584.097561 C340.302033,590.601626 346.060569,597.430894 351.499187,604.585366 C363.656098,620.195122 375.173171,636.780488 385.410569,654.01626 C395.967886,671.902439 405.245529,690.764227 413.243496,709.951219 C428.599594,706.04878 444.27561,703.121951 459.951626,701.821138 C467.629675,701.170731 475.307724,700.845528 482.985773,700.845528 C487.464634,700.845528 491.943496,700.845528 496.102439,701.170731 C499.301626,686.536585 503.140651,672.227642 507.619512,657.918699 C516.897155,629.300813 528.734147,601.658536 542.810569,575.317073 C523.295529,551.252032 506.339838,525.560975 492.263415,497.918699 Z" id="Path"></path>
                <path d="M490.663821,730.113821 C488.104472,730.113821 485.865041,730.113821 483.305691,730.113821 C472.108537,730.113821 461.231301,730.764227 450.034147,732.390244 C441.076423,733.691057 432.438618,735.317073 423.800813,737.593496 C426.360163,744.422764 428.599594,751.252032 430.839025,758.081301 C437.557317,779.219512 442.995935,801.00813 447.794716,822.796748 C461.55122,821.821138 475.627642,820.195122 490.023984,817.918699 C489.064228,814.01626 488.42439,810.439024 487.784553,806.536585 C485.545122,789.951219 485.545122,773.365853 487.144716,756.455284 C487.784553,747.349593 489.064228,738.894309 490.663821,730.113821 Z" id="Path"></path>
                <path d="M649.343496,673.203252 C618.95122,650.439024 589.518699,626.373984 563.285366,598.406504 C557.846748,609.138211 552.728049,620.195122 547.929268,631.252032 C538.331708,654.99187 530.653659,679.382114 524.895122,704.422764 C541.210976,707.349593 556.886992,712.227642 572.24309,718.081301 C590.798374,725.560975 609.03374,734.341463 626.30935,745.07317 C631.747968,748.325203 637.186586,751.902439 642.625203,755.479675 C642.945122,755.154471 643.58496,754.829268 643.904878,754.504065 C663.739838,740.845528 682.295122,725.560975 699.250813,708.325203 C698.610976,707.674797 697.65122,707.349593 697.011382,706.699187 C680.695529,696.292683 664.699594,684.910569 649.343496,673.203252 Z" id="Path"></path>
                <path d="M519.136586,733.04065 C518.176829,738.569105 517.217073,743.772357 516.577236,749.300813 C514.657724,766.211382 513.697968,783.121951 515.61748,800.03252 C516.257317,803.934959 516.897155,807.837398 517.856911,811.739837 C551.448374,803.284553 584.4,790.276423 615.112195,772.715447 C600.715854,763.934959 585.999594,755.804878 570.643496,748.97561 C554.007724,742.146341 536.732114,736.617886 519.136586,733.04065 Z" id="Path"></path>
                <path d="M254.88374,641.658536 C254.88374,641.658536 254.563821,641.98374 254.563821,641.98374 C253.923984,642.959349 253.284147,643.609756 252.644309,644.585366 C253.604065,643.609756 254.243903,642.634146 254.88374,641.658536 Z" id="Path"></path>
                <path d="M292.954065,591.252032 C294.23374,589.626016 295.193496,588.325203 296.473171,586.699187 C289.115041,579.544715 281.436992,572.715447 273.119106,566.211382 C253.604065,551.252032 232.80935,538.894309 210.415041,528.813008 C204.016667,526.211382 197.618293,523.609756 190.9,521.333333 C179.063008,542.471544 166.26626,562.959349 152.189838,582.796748 C136.193903,605.886179 118.918293,628 101.642683,650.113821 C105.801626,656.292683 110.600407,662.796748 115.719106,669.626016 C132.354878,691.414634 151.230081,711.577236 172.024797,729.463414 C173.62439,730.764227 174.904065,732.06504 176.503659,733.365853 C204.976423,705.398374 230.25,673.853658 254.243903,641.98374 C267.680488,625.07317 280.157317,608.162601 292.954065,591.252032 Z" id="Path"></path>
                <path d="M385.410569,718.406504 C371.334147,686.211382 353.738618,655.642276 332.623984,627.674797 C327.505285,620.845528 322.066667,614.341463 316.30813,607.837398 C313.428862,611.414634 310.869512,614.99187 307.990244,618.569105 C277.917886,658.243902 248.805285,698.894309 214.893903,735.317073 C209.775203,740.520325 204.976423,746.04878 199.857724,750.926829 C213.294309,760.682927 227.690651,769.463414 242.086992,777.268292 C251.364634,782.146341 260.962195,787.02439 270.559756,791.252032 C270.879675,790.926829 271.199594,790.926829 271.199594,790.601626 C280.477236,781.821138 290.394716,773.365853 300.312195,765.560975 C314.068699,754.504065 328.465041,744.747967 344.141057,736.292683 C357.897561,729.788618 371.334147,723.609756 385.410569,718.406504 Z" id="Path"></path>
                <path d="M380.611789,751.577236 C359.497155,761.00813 339.662195,772.390244 321.106911,786.699187 C314.388618,791.902439 307.670325,797.430894 301.271951,803.284553 C307.670325,805.560975 314.068699,807.512195 320.467073,809.138211 C347.020325,816.617886 375.173171,821.170731 404.605691,822.796748 C409.084553,823.121951 413.563415,823.121951 418.362195,823.121951 C412.28374,796.780488 405.245529,770.764227 396.287805,745.398374 C390.849187,747.349593 385.730488,749.626016 380.611789,751.577236 Z" id="Path"></path>
                <path d="M147.391057,405.235772 C159.228049,404.260162 171.065041,403.284553 182.582114,402.308943 C191.539838,401.658536 200.497561,400.682927 209.135366,399.707317 C210.73496,392.878049 212.014634,385.723577 212.97439,378.894309 C215.213821,359.05691 215.53374,339.544715 212.97439,319.707317 C212.334553,316.130081 212.014634,312.552845 211.054878,308.97561 C191.539838,318.731707 171.065041,326.536585 150.270325,333.04065 C114.75935,343.772357 77.6487805,349.951219 40.8581301,349.951219 C36.699187,371.089431 34.1398374,392.552845 33.5,414.01626 C60.053252,413.365853 86.6065041,411.089431 112.839837,408.487805 C124.676829,407.186992 136.193903,406.211382 147.391057,405.235772 Z" id="Path"></path>
                <path d="M136.513821,478.731707 C150.270325,480.682927 163.706911,482.959349 177.143496,486.536585 C182.262195,476.455284 186.741057,466.373984 191.219919,455.967479 C194.739025,447.186992 197.938212,438.406504 201.137399,429.626016 C196.978455,429.951219 192.819512,430.601626 188.340651,430.926829 C167.545935,432.878049 146.75122,434.504065 125.956504,436.455284 C105.161789,438.406504 84.3670732,440.682927 63.252439,441.98374 C53.654878,442.634146 44.0573171,442.959349 34.1398374,443.284553 C34.7796748,455.967479 35.7394309,468.97561 37.6589431,481.658536 C38.2987805,481.658536 38.9386179,481.333333 39.2585366,481.333333 C58.4536585,478.081301 77.6487805,476.130081 97.1638211,476.130081 C110.280488,476.130081 123.397155,477.105691 136.513821,478.731707 Z" id="Path"></path>
                <path d="M162.427236,513.203252 C153.789431,511.252032 144.831708,509.300813 135.873984,508 C122.757317,506.373984 109.320732,505.398374 96.204065,505.398374 C82.7674797,505.398374 69.3308943,506.373984 55.8943089,508 C51.4154471,508.650406 46.9365854,509.300813 42.4577236,510.276423 C42.7776423,511.252032 42.7776423,512.552845 43.097561,513.528455 C48.8560976,540.845528 58.4536585,568.487805 71.2504065,596.455284 C75.4093496,605.560975 80.2081301,614.666666 85.3268293,624.097561 C91.4052845,616.617886 97.1638211,608.813008 102.922358,601.333333 C124.676829,573.04065 144.831708,543.772357 162.427236,513.203252 Z" id="Path"></path>
                <path d="M276.318293,130.764227 C293.593903,143.772357 312.149187,154.504065 331.984147,162.959349 C334.863415,164.260162 337.422764,165.235772 340.302033,166.211382 C340.302033,165.886179 340.621951,165.886179 340.621951,165.560975 C359.497155,140.520325 375.813008,113.528455 388.289838,84.2601626 C395.647968,66.0487805 401.406504,47.5121951 404.285773,28 C403.645935,28 403.006098,28 402.36626,28 C373.253659,29.9512195 344.460976,34.8292683 317.267886,42.9593496 C291.034553,50.7642276 265.121138,61.4959349 239.847561,75.4796748 C237.288212,76.7804878 234.728862,78.406504 232.169512,79.707317 C235.688618,85.8861788 239.527642,92.0650406 244.006504,97.9186992 C253.284147,110.601626 264.161382,121.333333 276.318293,130.764227 Z" id="Path"></path>
                <path d="M191.539838,197.105691 C201.137399,209.138211 209.775203,221.821138 216.813415,235.479675 C221.612195,245.235772 226.091057,255.317073 229.930081,265.398374 C244.006504,256.943089 257.763008,247.512195 270.879675,237.430894 C288.795122,223.121951 305.430895,206.861788 320.786992,189.626016 C318.547561,188.650406 316.30813,187.674797 314.388618,186.699187 C287.515447,174.666666 262.24187,158.731707 240.807317,137.918699 C230.25,127.512195 220.652439,116.130081 212.654472,103.447154 C211.054878,100.845528 209.455285,98.2439024 207.855691,95.3170731 C195.378862,104.097561 182.902033,113.528455 170.745122,124.260163 C162.747155,131.089431 155.069106,138.569105 147.071138,146.699187 C163.386992,162.308943 177.783334,179.544715 191.539838,197.105691 Z" id="Path"></path>
                <path d="M181.302439,290.764227 C188.980488,287.512195 196.658537,283.609756 204.336586,279.707317 C202.736992,274.829268 201.137399,269.951219 199.217886,265.07317 C192.179675,248.813008 183.54187,233.528455 172.984553,219.219512 C159.228049,201.333333 144.511789,183.772357 127.876016,168.487805 C123.397155,173.691057 118.918293,179.544715 114.119512,186.04878 C97.4837398,208.162601 83.0873984,232.552845 70.9304878,258.569105 C61.6528455,278.406504 54.2947154,299.219512 48.5361789,320.357723 C61.0130081,320.03252 73.4898374,319.05691 85.646748,317.430894 C118.278455,312.878049 150.590244,303.772357 181.302439,290.764227 Z" id="Path"></path>
            </g>
        </g>
    </g>
</svg>