<?xml version="1.0" encoding="UTF-8"?>
<svg xmlns="http://www.w3.org/2000/svg" xmlns:xlink="http://www.w3.org/1999/xlink" id="Firenet" width="100" height="100" viewBox="0 0 100 100">
  <defs>
    <clipPath id="clip-path">
      <rect id="Rechteck_171" data-name="Rechteck 171" width="100" height="100" fill="none"></rect>
    </clipPath>
  </defs>
  <g id="Gruppe_753" data-name="Gruppe 753" transform="translate(0)">
    <g id="Gruppe_752" data-name="Gruppe 752" clip-path="url(#clip-path)">
      <path id="Pfad_658" data-name="Pfad 658" d="M31.257,84.229c-6.452-14.175,5.218-19.359-.516-30.582-.445-.894-.856-1.75-1.2-2.611-.89,8.272-7.824,13.386-5.767,24.613a19.1,19.1,0,0,0,6.384,10.708h2.414a12.151,12.151,0,0,1-1.316-2.128" transform="translate(0.879 1.917)" fill="#fff"></path>
      <path id="Pfad_659" data-name="Pfad 659" d="M34.32,53.422c.516,4.051,3.706,8.033,3.912,9.405-1.2-14.349,12.05-24.063,16.2-32.608,4.327-8.857,1.031-15.686-5.63-18.948,1.717,1.647,3.262,3.673,3.363,6.179C52.923,34.165,32.02,35.574,34.32,53.422" transform="translate(1.282 0.423)" fill="#fff"></path>
      <path id="Pfad_660" data-name="Pfad 660" d="M64.11,87.147l2.2,0c3.4-4.021,12.149-15.891,4.118-24.677-.033-.037-15.446-14.073-11.568-31.685-2.473,2.883-4.911,7.382-5.184,10.2-1.99,20.286,16,22.107,13.213,40.333a14.915,14.915,0,0,1-2.775,5.831" transform="translate(2.01 1.156)" fill="#fff"></path>
    </g>
  </g>
  <rect id="Rechteck_172" data-name="Rechteck 172" width="100" height="100" transform="translate(0 0)" fill="#e94c0a"></rect>
  <g id="Gruppe_755" data-name="Gruppe 755" transform="translate(0)">
    <g id="Gruppe_754" data-name="Gruppe 754" clip-path="url(#clip-path)">
      <path id="Pfad_661" data-name="Pfad 661" d="M48.465,11.27c1.649,1.614,3.171,3.594,3.287,6.089.75,16.388-19.818,17.76-17.542,35.305.535,4.131,3.87,8.16,3.836,9.369C36.78,47.836,49.871,38.29,53.974,29.878c4.246-8.7.99-15.376-5.508-18.608" transform="translate(1.278 0.423)" fill="#fff"></path>
      <path id="Pfad_662" data-name="Pfad 662" d="M58.32,30.451C55.9,33.28,53.487,37.7,53.215,40.461c-1.962,19.88,15.75,21.685,13,39.572a15.832,15.832,0,0,1-3.86,7.057l-.007.01,7.375,0c9.119-13.45-.037-25.575-.037-25.575C64.16,54.6,54.515,47.72,58.32,30.451" transform="translate(1.993 1.144)" fill="#fff"></path>
      <path id="Pfad_663" data-name="Pfad 663" d="M30.665,52.856c-.447-.874-.846-1.727-1.2-2.549-.875,8.144-7.727,13.147-5.7,24.177a19.276,19.276,0,0,0,8,11.859l.013.013H33.59a.036.036,0,0,0-.01-.013,15.4,15.4,0,0,1-2.42-3.471c-6.306-13.887,5.133-18.989-.495-30.017" transform="translate(0.879 1.89)" fill="#fff"></path>
    </g>
  </g>
  <path id="Pfad_664" data-name="Pfad 664" d="M52.115,77.418" transform="translate(1.957 2.908)" fill="#fff"></path>
</svg>
